<mxfile host="app.diagrams.net" agent="Mozilla/5.0 (Windows NT 10.0; Win64; x64) AppleWebKit/537.36 (KHTML, like Gecko) Chrome/134.0.0.0 Safari/537.36 OPR/119.0.0.0" version="27.1.4">
  <diagram name="Page-1" id="kvXtFXLM-AqxZf3X4bmF">
    <mxGraphModel dx="3158" dy="1260" grid="1" gridSize="10" guides="1" tooltips="1" connect="1" arrows="1" fold="1" page="1" pageScale="1" pageWidth="850" pageHeight="1100" math="0" shadow="0">
      <root>
        <mxCell id="0" />
        <mxCell id="1" parent="0" />
        <mxCell id="NwX0gk8FVgNozurQdXJV-1" value="&lt;span style=&quot;box-sizing: border-box; border: 0px solid; --tw-border-spacing-x: 0; --tw-border-spacing-y: 0; --tw-translate-x: 0; --tw-translate-y: 0; --tw-rotate: 0; --tw-skew-x: 0; --tw-skew-y: 0; --tw-scale-x: 1; --tw-scale-y: 1; --tw-pan-x: ; --tw-pan-y: ; --tw-pinch-zoom: ; --tw-scroll-snap-strictness: proximity; --tw-ordinal: ; --tw-slashed-zero: ; --tw-numeric-figure: ; --tw-numeric-spacing: ; --tw-numeric-fraction: ; --tw-ring-inset: ; --tw-ring-offset-width: 0px; --tw-ring-offset-color: #fff; --tw-ring-color: rgba(59,130,246,.5); --tw-ring-offset-shadow: 0 0 transparent; --tw-ring-shadow: 0 0 transparent; --tw-shadow: 0 0 transparent; --tw-shadow-colored: 0 0 transparent; --tw-blur: ; --tw-brightness: ; --tw-contrast: ; --tw-grayscale: ; --tw-hue-rotate: ; --tw-invert: ; --tw-saturate: ; --tw-sepia: ; --tw-drop-shadow: ; --tw-backdrop-blur: ; --tw-backdrop-brightness: ; --tw-backdrop-contrast: ; --tw-backdrop-grayscale: ; --tw-backdrop-hue-rotate: ; --tw-backdrop-invert: ; --tw-backdrop-opacity: ; --tw-backdrop-saturate: ; --tw-backdrop-sepia: ; --tw-gradient-from-position: ; --tw-gradient-via-position: ; --tw-gradient-to-position: ; font-weight: 600; color: rgba(6, 0, 15, 0.89); font-family: Inter, system-ui, -apple-system, &amp;quot;Segoe UI&amp;quot;, Roboto, Ubuntu, Cantarell, &amp;quot;Noto Sans&amp;quot;, sans-serif, &amp;quot;Segoe UI&amp;quot;, Roboto, Ubuntu, Cantarell, &amp;quot;Noto Sans&amp;quot;, sans-serif; font-size: 14px; text-align: left; background-color: rgb(253, 252, 254);&quot; class=&quot;!text-neutral-a12&quot;&gt;RESERVAS&lt;/span&gt;" style="rounded=1;whiteSpace=wrap;html=1;" vertex="1" parent="1">
          <mxGeometry x="780" y="280" width="120" height="60" as="geometry" />
        </mxCell>
        <mxCell id="NwX0gk8FVgNozurQdXJV-2" value="&lt;span style=&quot;box-sizing: border-box; border: 0px solid; --tw-border-spacing-x: 0; --tw-border-spacing-y: 0; --tw-translate-x: 0; --tw-translate-y: 0; --tw-rotate: 0; --tw-skew-x: 0; --tw-skew-y: 0; --tw-scale-x: 1; --tw-scale-y: 1; --tw-pan-x: ; --tw-pan-y: ; --tw-pinch-zoom: ; --tw-scroll-snap-strictness: proximity; --tw-ordinal: ; --tw-slashed-zero: ; --tw-numeric-figure: ; --tw-numeric-spacing: ; --tw-numeric-fraction: ; --tw-ring-inset: ; --tw-ring-offset-width: 0px; --tw-ring-offset-color: #fff; --tw-ring-color: rgba(59,130,246,.5); --tw-ring-offset-shadow: 0 0 transparent; --tw-ring-shadow: 0 0 transparent; --tw-shadow: 0 0 transparent; --tw-shadow-colored: 0 0 transparent; --tw-blur: ; --tw-brightness: ; --tw-contrast: ; --tw-grayscale: ; --tw-hue-rotate: ; --tw-invert: ; --tw-saturate: ; --tw-sepia: ; --tw-drop-shadow: ; --tw-backdrop-blur: ; --tw-backdrop-brightness: ; --tw-backdrop-contrast: ; --tw-backdrop-grayscale: ; --tw-backdrop-hue-rotate: ; --tw-backdrop-invert: ; --tw-backdrop-opacity: ; --tw-backdrop-saturate: ; --tw-backdrop-sepia: ; --tw-gradient-from-position: ; --tw-gradient-via-position: ; --tw-gradient-to-position: ; font-weight: 600; color: rgba(6, 0, 15, 0.89); font-family: Inter, system-ui, -apple-system, &amp;quot;Segoe UI&amp;quot;, Roboto, Ubuntu, Cantarell, &amp;quot;Noto Sans&amp;quot;, sans-serif, &amp;quot;Segoe UI&amp;quot;, Roboto, Ubuntu, Cantarell, &amp;quot;Noto Sans&amp;quot;, sans-serif; font-size: 14px; text-align: left; background-color: rgb(253, 252, 254);&quot; class=&quot;!text-neutral-a12&quot;&gt;CAROUSEL_IMAGES&lt;/span&gt;" style="rounded=1;whiteSpace=wrap;html=1;" vertex="1" parent="1">
          <mxGeometry x="-160" y="540" width="160" height="60" as="geometry" />
        </mxCell>
        <mxCell id="NwX0gk8FVgNozurQdXJV-3" value="&lt;span style=&quot;box-sizing: border-box; border: 0px solid; --tw-border-spacing-x: 0; --tw-border-spacing-y: 0; --tw-translate-x: 0; --tw-translate-y: 0; --tw-rotate: 0; --tw-skew-x: 0; --tw-skew-y: 0; --tw-scale-x: 1; --tw-scale-y: 1; --tw-pan-x: ; --tw-pan-y: ; --tw-pinch-zoom: ; --tw-scroll-snap-strictness: proximity; --tw-ordinal: ; --tw-slashed-zero: ; --tw-numeric-figure: ; --tw-numeric-spacing: ; --tw-numeric-fraction: ; --tw-ring-inset: ; --tw-ring-offset-width: 0px; --tw-ring-offset-color: #fff; --tw-ring-color: rgba(59,130,246,.5); --tw-ring-offset-shadow: 0 0 transparent; --tw-ring-shadow: 0 0 transparent; --tw-shadow: 0 0 transparent; --tw-shadow-colored: 0 0 transparent; --tw-blur: ; --tw-brightness: ; --tw-contrast: ; --tw-grayscale: ; --tw-hue-rotate: ; --tw-invert: ; --tw-saturate: ; --tw-sepia: ; --tw-drop-shadow: ; --tw-backdrop-blur: ; --tw-backdrop-brightness: ; --tw-backdrop-contrast: ; --tw-backdrop-grayscale: ; --tw-backdrop-hue-rotate: ; --tw-backdrop-invert: ; --tw-backdrop-opacity: ; --tw-backdrop-saturate: ; --tw-backdrop-sepia: ; --tw-gradient-from-position: ; --tw-gradient-via-position: ; --tw-gradient-to-position: ; font-weight: 600; color: rgba(6, 0, 15, 0.89); font-family: Inter, system-ui, -apple-system, &amp;quot;Segoe UI&amp;quot;, Roboto, Ubuntu, Cantarell, &amp;quot;Noto Sans&amp;quot;, sans-serif, &amp;quot;Segoe UI&amp;quot;, Roboto, Ubuntu, Cantarell, &amp;quot;Noto Sans&amp;quot;, sans-serif; font-size: 14px; text-align: left; background-color: rgb(253, 252, 254);&quot; class=&quot;!text-neutral-a12&quot;&gt;HABITACIONES&lt;/span&gt;" style="rounded=1;whiteSpace=wrap;html=1;" vertex="1" parent="1">
          <mxGeometry x="1090" y="280" width="120" height="67" as="geometry" />
        </mxCell>
        <mxCell id="NwX0gk8FVgNozurQdXJV-4" value="&lt;span style=&quot;box-sizing: border-box; border: 0px solid; --tw-border-spacing-x: 0; --tw-border-spacing-y: 0; --tw-translate-x: 0; --tw-translate-y: 0; --tw-rotate: 0; --tw-skew-x: 0; --tw-skew-y: 0; --tw-scale-x: 1; --tw-scale-y: 1; --tw-pan-x: ; --tw-pan-y: ; --tw-pinch-zoom: ; --tw-scroll-snap-strictness: proximity; --tw-ordinal: ; --tw-slashed-zero: ; --tw-numeric-figure: ; --tw-numeric-spacing: ; --tw-numeric-fraction: ; --tw-ring-inset: ; --tw-ring-offset-width: 0px; --tw-ring-offset-color: #fff; --tw-ring-color: rgba(59,130,246,.5); --tw-ring-offset-shadow: 0 0 transparent; --tw-ring-shadow: 0 0 transparent; --tw-shadow: 0 0 transparent; --tw-shadow-colored: 0 0 transparent; --tw-blur: ; --tw-brightness: ; --tw-contrast: ; --tw-grayscale: ; --tw-hue-rotate: ; --tw-invert: ; --tw-saturate: ; --tw-sepia: ; --tw-drop-shadow: ; --tw-backdrop-blur: ; --tw-backdrop-brightness: ; --tw-backdrop-contrast: ; --tw-backdrop-grayscale: ; --tw-backdrop-hue-rotate: ; --tw-backdrop-invert: ; --tw-backdrop-opacity: ; --tw-backdrop-saturate: ; --tw-backdrop-sepia: ; --tw-gradient-from-position: ; --tw-gradient-via-position: ; --tw-gradient-to-position: ; font-weight: 600; color: rgba(6, 0, 15, 0.89); font-family: Inter, system-ui, -apple-system, &amp;quot;Segoe UI&amp;quot;, Roboto, Ubuntu, Cantarell, &amp;quot;Noto Sans&amp;quot;, sans-serif, &amp;quot;Segoe UI&amp;quot;, Roboto, Ubuntu, Cantarell, &amp;quot;Noto Sans&amp;quot;, sans-serif; font-size: 14px; text-align: left; background-color: rgb(253, 252, 254);&quot; class=&quot;!text-neutral-a12&quot;&gt;RESERVAS_EVENTOS&lt;/span&gt;" style="rounded=1;whiteSpace=wrap;html=1;" vertex="1" parent="1">
          <mxGeometry x="160" y="180" width="160" height="60" as="geometry" />
        </mxCell>
        <mxCell id="NwX0gk8FVgNozurQdXJV-5" value="&lt;span style=&quot;box-sizing: border-box; border: 0px solid; --tw-border-spacing-x: 0; --tw-border-spacing-y: 0; --tw-translate-x: 0; --tw-translate-y: 0; --tw-rotate: 0; --tw-skew-x: 0; --tw-skew-y: 0; --tw-scale-x: 1; --tw-scale-y: 1; --tw-pan-x: ; --tw-pan-y: ; --tw-pinch-zoom: ; --tw-scroll-snap-strictness: proximity; --tw-ordinal: ; --tw-slashed-zero: ; --tw-numeric-figure: ; --tw-numeric-spacing: ; --tw-numeric-fraction: ; --tw-ring-inset: ; --tw-ring-offset-width: 0px; --tw-ring-offset-color: #fff; --tw-ring-color: rgba(59,130,246,.5); --tw-ring-offset-shadow: 0 0 transparent; --tw-ring-shadow: 0 0 transparent; --tw-shadow: 0 0 transparent; --tw-shadow-colored: 0 0 transparent; --tw-blur: ; --tw-brightness: ; --tw-contrast: ; --tw-grayscale: ; --tw-hue-rotate: ; --tw-invert: ; --tw-saturate: ; --tw-sepia: ; --tw-drop-shadow: ; --tw-backdrop-blur: ; --tw-backdrop-brightness: ; --tw-backdrop-contrast: ; --tw-backdrop-grayscale: ; --tw-backdrop-hue-rotate: ; --tw-backdrop-invert: ; --tw-backdrop-opacity: ; --tw-backdrop-saturate: ; --tw-backdrop-sepia: ; --tw-gradient-from-position: ; --tw-gradient-via-position: ; --tw-gradient-to-position: ; font-weight: 600; color: rgba(6, 0, 15, 0.89); font-family: Inter, system-ui, -apple-system, &amp;quot;Segoe UI&amp;quot;, Roboto, Ubuntu, Cantarell, &amp;quot;Noto Sans&amp;quot;, sans-serif, &amp;quot;Segoe UI&amp;quot;, Roboto, Ubuntu, Cantarell, &amp;quot;Noto Sans&amp;quot;, sans-serif; font-size: 14px; text-align: left; background-color: rgb(253, 252, 254);&quot; class=&quot;!text-neutral-a12&quot;&gt;LUGARES&lt;/span&gt;" style="rounded=1;whiteSpace=wrap;html=1;" vertex="1" parent="1">
          <mxGeometry x="-150" y="180" width="120" height="60" as="geometry" />
        </mxCell>
        <mxCell id="NwX0gk8FVgNozurQdXJV-6" value="&lt;span style=&quot;box-sizing: border-box; border: 0px solid; --tw-border-spacing-x: 0; --tw-border-spacing-y: 0; --tw-translate-x: 0; --tw-translate-y: 0; --tw-rotate: 0; --tw-skew-x: 0; --tw-skew-y: 0; --tw-scale-x: 1; --tw-scale-y: 1; --tw-pan-x: ; --tw-pan-y: ; --tw-pinch-zoom: ; --tw-scroll-snap-strictness: proximity; --tw-ordinal: ; --tw-slashed-zero: ; --tw-numeric-figure: ; --tw-numeric-spacing: ; --tw-numeric-fraction: ; --tw-ring-inset: ; --tw-ring-offset-width: 0px; --tw-ring-offset-color: #fff; --tw-ring-color: rgba(59,130,246,.5); --tw-ring-offset-shadow: 0 0 transparent; --tw-ring-shadow: 0 0 transparent; --tw-shadow: 0 0 transparent; --tw-shadow-colored: 0 0 transparent; --tw-blur: ; --tw-brightness: ; --tw-contrast: ; --tw-grayscale: ; --tw-hue-rotate: ; --tw-invert: ; --tw-saturate: ; --tw-sepia: ; --tw-drop-shadow: ; --tw-backdrop-blur: ; --tw-backdrop-brightness: ; --tw-backdrop-contrast: ; --tw-backdrop-grayscale: ; --tw-backdrop-hue-rotate: ; --tw-backdrop-invert: ; --tw-backdrop-opacity: ; --tw-backdrop-saturate: ; --tw-backdrop-sepia: ; --tw-gradient-from-position: ; --tw-gradient-via-position: ; --tw-gradient-to-position: ; font-weight: 600; color: rgba(6, 0, 15, 0.89); font-family: Inter, system-ui, -apple-system, &amp;quot;Segoe UI&amp;quot;, Roboto, Ubuntu, Cantarell, &amp;quot;Noto Sans&amp;quot;, sans-serif, &amp;quot;Segoe UI&amp;quot;, Roboto, Ubuntu, Cantarell, &amp;quot;Noto Sans&amp;quot;, sans-serif; font-size: 14px; text-align: left; background-color: rgb(253, 252, 254);&quot; class=&quot;!text-neutral-a12&quot;&gt;USERS&lt;/span&gt;" style="rounded=1;whiteSpace=wrap;html=1;" vertex="1" parent="1">
          <mxGeometry x="470" y="280" width="120" height="60" as="geometry" />
        </mxCell>
        <mxCell id="NwX0gk8FVgNozurQdXJV-7" value="&lt;span style=&quot;box-sizing: border-box; border: 0px solid; --tw-border-spacing-x: 0; --tw-border-spacing-y: 0; --tw-translate-x: 0; --tw-translate-y: 0; --tw-rotate: 0; --tw-skew-x: 0; --tw-skew-y: 0; --tw-scale-x: 1; --tw-scale-y: 1; --tw-pan-x: ; --tw-pan-y: ; --tw-pinch-zoom: ; --tw-scroll-snap-strictness: proximity; --tw-ordinal: ; --tw-slashed-zero: ; --tw-numeric-figure: ; --tw-numeric-spacing: ; --tw-numeric-fraction: ; --tw-ring-inset: ; --tw-ring-offset-width: 0px; --tw-ring-offset-color: #fff; --tw-ring-color: rgba(59,130,246,.5); --tw-ring-offset-shadow: 0 0 transparent; --tw-ring-shadow: 0 0 transparent; --tw-shadow: 0 0 transparent; --tw-shadow-colored: 0 0 transparent; --tw-blur: ; --tw-brightness: ; --tw-contrast: ; --tw-grayscale: ; --tw-hue-rotate: ; --tw-invert: ; --tw-saturate: ; --tw-sepia: ; --tw-drop-shadow: ; --tw-backdrop-blur: ; --tw-backdrop-brightness: ; --tw-backdrop-contrast: ; --tw-backdrop-grayscale: ; --tw-backdrop-hue-rotate: ; --tw-backdrop-invert: ; --tw-backdrop-opacity: ; --tw-backdrop-saturate: ; --tw-backdrop-sepia: ; --tw-gradient-from-position: ; --tw-gradient-via-position: ; --tw-gradient-to-position: ; font-weight: 600; color: rgba(6, 0, 15, 0.89); font-family: Inter, system-ui, -apple-system, &amp;quot;Segoe UI&amp;quot;, Roboto, Ubuntu, Cantarell, &amp;quot;Noto Sans&amp;quot;, sans-serif, &amp;quot;Segoe UI&amp;quot;, Roboto, Ubuntu, Cantarell, &amp;quot;Noto Sans&amp;quot;, sans-serif; font-size: 14px; text-align: left; background-color: rgb(253, 252, 254);&quot; class=&quot;!text-neutral-a12&quot;&gt;CONSULTAS&lt;/span&gt;" style="rounded=1;whiteSpace=wrap;html=1;" vertex="1" parent="1">
          <mxGeometry x="210" y="795" width="120" height="60" as="geometry" />
        </mxCell>
        <mxCell id="NwX0gk8FVgNozurQdXJV-10" value="&lt;u&gt;ID&lt;/u&gt;" style="ellipse;whiteSpace=wrap;html=1;" vertex="1" parent="1">
          <mxGeometry x="520" y="380" width="120" height="40" as="geometry" />
        </mxCell>
        <mxCell id="NwX0gk8FVgNozurQdXJV-11" value="USERNAME" style="ellipse;whiteSpace=wrap;html=1;" vertex="1" parent="1">
          <mxGeometry x="520" y="420" width="120" height="40" as="geometry" />
        </mxCell>
        <mxCell id="NwX0gk8FVgNozurQdXJV-12" value="LASTNAME" style="ellipse;whiteSpace=wrap;html=1;" vertex="1" parent="1">
          <mxGeometry x="520" y="460" width="120" height="40" as="geometry" />
        </mxCell>
        <mxCell id="NwX0gk8FVgNozurQdXJV-13" value="USERMAIL" style="ellipse;whiteSpace=wrap;html=1;" vertex="1" parent="1">
          <mxGeometry x="520" y="500" width="120" height="40" as="geometry" />
        </mxCell>
        <mxCell id="NwX0gk8FVgNozurQdXJV-14" value="PHONE_NUMBER" style="ellipse;whiteSpace=wrap;html=1;" vertex="1" parent="1">
          <mxGeometry x="520" y="540" width="120" height="40" as="geometry" />
        </mxCell>
        <mxCell id="NwX0gk8FVgNozurQdXJV-15" value="PASSWORD_HASH" style="ellipse;whiteSpace=wrap;html=1;" vertex="1" parent="1">
          <mxGeometry x="520" y="580" width="120" height="40" as="geometry" />
        </mxCell>
        <mxCell id="NwX0gk8FVgNozurQdXJV-16" value="ROLE" style="ellipse;whiteSpace=wrap;html=1;" vertex="1" parent="1">
          <mxGeometry x="520" y="620" width="120" height="40" as="geometry" />
        </mxCell>
        <mxCell id="NwX0gk8FVgNozurQdXJV-17" value="BIRTHDAY" style="ellipse;whiteSpace=wrap;html=1;" vertex="1" parent="1">
          <mxGeometry x="520" y="660" width="120" height="40" as="geometry" />
        </mxCell>
        <mxCell id="NwX0gk8FVgNozurQdXJV-18" value="DNI" style="ellipse;whiteSpace=wrap;html=1;" vertex="1" parent="1">
          <mxGeometry x="520" y="700" width="120" height="40" as="geometry" />
        </mxCell>
        <mxCell id="NwX0gk8FVgNozurQdXJV-19" value="ADDRESS" style="ellipse;whiteSpace=wrap;html=1;" vertex="1" parent="1">
          <mxGeometry x="520" y="740" width="120" height="40" as="geometry" />
        </mxCell>
        <mxCell id="NwX0gk8FVgNozurQdXJV-21" value="" style="endArrow=classic;html=1;rounded=0;exitX=0;exitY=0.5;exitDx=0;exitDy=0;startFill=0;entryX=0;entryY=1;entryDx=0;entryDy=0;endFill=1;" edge="1" parent="1" source="NwX0gk8FVgNozurQdXJV-11" target="NwX0gk8FVgNozurQdXJV-6">
          <mxGeometry width="50" height="50" relative="1" as="geometry">
            <mxPoint x="420" y="560" as="sourcePoint" />
            <mxPoint x="470" y="400" as="targetPoint" />
            <Array as="points">
              <mxPoint x="470" y="440" />
            </Array>
          </mxGeometry>
        </mxCell>
        <mxCell id="NwX0gk8FVgNozurQdXJV-22" value="" style="endArrow=none;html=1;rounded=0;exitX=0;exitY=0.5;exitDx=0;exitDy=0;startFill=0;" edge="1" parent="1">
          <mxGeometry width="50" height="50" relative="1" as="geometry">
            <mxPoint x="520" y="480" as="sourcePoint" />
            <mxPoint x="470" y="440" as="targetPoint" />
            <Array as="points">
              <mxPoint x="470" y="480" />
            </Array>
          </mxGeometry>
        </mxCell>
        <mxCell id="NwX0gk8FVgNozurQdXJV-23" value="" style="endArrow=none;html=1;rounded=0;exitX=0;exitY=0.5;exitDx=0;exitDy=0;startFill=0;" edge="1" parent="1">
          <mxGeometry width="50" height="50" relative="1" as="geometry">
            <mxPoint x="520" y="520" as="sourcePoint" />
            <mxPoint x="470" y="480" as="targetPoint" />
            <Array as="points">
              <mxPoint x="470" y="520" />
            </Array>
          </mxGeometry>
        </mxCell>
        <mxCell id="NwX0gk8FVgNozurQdXJV-24" value="" style="endArrow=none;html=1;rounded=0;exitX=0;exitY=0.5;exitDx=0;exitDy=0;startFill=0;" edge="1" parent="1">
          <mxGeometry width="50" height="50" relative="1" as="geometry">
            <mxPoint x="520" y="560" as="sourcePoint" />
            <mxPoint x="470" y="520" as="targetPoint" />
            <Array as="points">
              <mxPoint x="470" y="560" />
            </Array>
          </mxGeometry>
        </mxCell>
        <mxCell id="NwX0gk8FVgNozurQdXJV-25" value="" style="endArrow=none;html=1;rounded=0;exitX=0;exitY=0.5;exitDx=0;exitDy=0;startFill=0;" edge="1" parent="1">
          <mxGeometry width="50" height="50" relative="1" as="geometry">
            <mxPoint x="520" y="600" as="sourcePoint" />
            <mxPoint x="470" y="560" as="targetPoint" />
            <Array as="points">
              <mxPoint x="470" y="600" />
            </Array>
          </mxGeometry>
        </mxCell>
        <mxCell id="NwX0gk8FVgNozurQdXJV-26" value="" style="endArrow=none;html=1;rounded=0;exitX=0;exitY=0.5;exitDx=0;exitDy=0;startFill=0;" edge="1" parent="1">
          <mxGeometry width="50" height="50" relative="1" as="geometry">
            <mxPoint x="520" y="640" as="sourcePoint" />
            <mxPoint x="470" y="600" as="targetPoint" />
            <Array as="points">
              <mxPoint x="470" y="640" />
            </Array>
          </mxGeometry>
        </mxCell>
        <mxCell id="NwX0gk8FVgNozurQdXJV-27" value="" style="endArrow=none;html=1;rounded=0;exitX=0;exitY=0.5;exitDx=0;exitDy=0;startFill=0;" edge="1" parent="1">
          <mxGeometry width="50" height="50" relative="1" as="geometry">
            <mxPoint x="520" y="680" as="sourcePoint" />
            <mxPoint x="470" y="640" as="targetPoint" />
            <Array as="points">
              <mxPoint x="470" y="680" />
            </Array>
          </mxGeometry>
        </mxCell>
        <mxCell id="NwX0gk8FVgNozurQdXJV-28" value="" style="endArrow=none;html=1;rounded=0;exitX=0;exitY=0.5;exitDx=0;exitDy=0;startFill=0;" edge="1" parent="1">
          <mxGeometry width="50" height="50" relative="1" as="geometry">
            <mxPoint x="520" y="720" as="sourcePoint" />
            <mxPoint x="470" y="680" as="targetPoint" />
            <Array as="points">
              <mxPoint x="470" y="720" />
            </Array>
          </mxGeometry>
        </mxCell>
        <mxCell id="NwX0gk8FVgNozurQdXJV-29" value="" style="endArrow=none;html=1;rounded=0;exitX=0;exitY=0.5;exitDx=0;exitDy=0;startFill=0;" edge="1" parent="1">
          <mxGeometry width="50" height="50" relative="1" as="geometry">
            <mxPoint x="520" y="760" as="sourcePoint" />
            <mxPoint x="470" y="720" as="targetPoint" />
            <Array as="points">
              <mxPoint x="470" y="760" />
            </Array>
          </mxGeometry>
        </mxCell>
        <mxCell id="NwX0gk8FVgNozurQdXJV-30" value="1:N" style="rhombus;whiteSpace=wrap;html=1;" vertex="1" parent="1">
          <mxGeometry x="640" y="285" width="100" height="50" as="geometry" />
        </mxCell>
        <mxCell id="NwX0gk8FVgNozurQdXJV-31" value="" style="endArrow=none;html=1;rounded=0;exitX=1;exitY=0.5;exitDx=0;exitDy=0;" edge="1" parent="1" source="NwX0gk8FVgNozurQdXJV-6" target="NwX0gk8FVgNozurQdXJV-30">
          <mxGeometry width="50" height="50" relative="1" as="geometry">
            <mxPoint x="620" y="450" as="sourcePoint" />
            <mxPoint x="670" y="400" as="targetPoint" />
          </mxGeometry>
        </mxCell>
        <mxCell id="NwX0gk8FVgNozurQdXJV-32" value="" style="endArrow=none;html=1;rounded=0;exitX=1;exitY=0.5;exitDx=0;exitDy=0;entryX=0;entryY=0.5;entryDx=0;entryDy=0;" edge="1" parent="1" source="NwX0gk8FVgNozurQdXJV-30" target="NwX0gk8FVgNozurQdXJV-1">
          <mxGeometry width="50" height="50" relative="1" as="geometry">
            <mxPoint x="730" y="370" as="sourcePoint" />
            <mxPoint x="780" y="370" as="targetPoint" />
          </mxGeometry>
        </mxCell>
        <mxCell id="NwX0gk8FVgNozurQdXJV-38" value="&lt;u&gt;ID&lt;/u&gt;" style="ellipse;whiteSpace=wrap;html=1;" vertex="1" parent="1">
          <mxGeometry x="180" y="280" width="140" height="40" as="geometry" />
        </mxCell>
        <mxCell id="NwX0gk8FVgNozurQdXJV-39" value="N:1" style="rhombus;whiteSpace=wrap;html=1;" vertex="1" parent="1">
          <mxGeometry x="360" y="185" width="100" height="50" as="geometry" />
        </mxCell>
        <mxCell id="NwX0gk8FVgNozurQdXJV-41" value="N:1" style="rhombus;whiteSpace=wrap;html=1;" vertex="1" parent="1">
          <mxGeometry x="945" y="285" width="100" height="50" as="geometry" />
        </mxCell>
        <mxCell id="NwX0gk8FVgNozurQdXJV-42" value="" style="endArrow=none;html=1;rounded=0;exitX=1;exitY=0.5;exitDx=0;exitDy=0;entryX=0;entryY=0.5;entryDx=0;entryDy=0;" edge="1" parent="1" source="NwX0gk8FVgNozurQdXJV-1" target="NwX0gk8FVgNozurQdXJV-41">
          <mxGeometry width="50" height="50" relative="1" as="geometry">
            <mxPoint x="910" y="390" as="sourcePoint" />
            <mxPoint x="960" y="390" as="targetPoint" />
          </mxGeometry>
        </mxCell>
        <mxCell id="NwX0gk8FVgNozurQdXJV-43" value="" style="endArrow=none;html=1;rounded=0;exitX=1;exitY=0.5;exitDx=0;exitDy=0;entryX=0;entryY=0.448;entryDx=0;entryDy=0;entryPerimeter=0;" edge="1" parent="1" source="NwX0gk8FVgNozurQdXJV-41" target="NwX0gk8FVgNozurQdXJV-3">
          <mxGeometry width="50" height="50" relative="1" as="geometry">
            <mxPoint x="990" y="370" as="sourcePoint" />
            <mxPoint x="1035" y="370" as="targetPoint" />
          </mxGeometry>
        </mxCell>
        <mxCell id="NwX0gk8FVgNozurQdXJV-44" value="1:N" style="rhombus;whiteSpace=wrap;html=1;" vertex="1" parent="1">
          <mxGeometry x="30" y="185" width="100" height="50" as="geometry" />
        </mxCell>
        <mxCell id="NwX0gk8FVgNozurQdXJV-46" value="" style="endArrow=none;html=1;rounded=0;exitX=1;exitY=0.5;exitDx=0;exitDy=0;entryX=0;entryY=0.5;entryDx=0;entryDy=0;" edge="1" parent="1" source="NwX0gk8FVgNozurQdXJV-44" target="NwX0gk8FVgNozurQdXJV-4">
          <mxGeometry width="50" height="50" relative="1" as="geometry">
            <mxPoint x="140" y="260" as="sourcePoint" />
            <mxPoint x="190" y="260" as="targetPoint" />
          </mxGeometry>
        </mxCell>
        <mxCell id="NwX0gk8FVgNozurQdXJV-47" value="" style="endArrow=none;html=1;rounded=0;exitX=1;exitY=0.5;exitDx=0;exitDy=0;entryX=0;entryY=0.5;entryDx=0;entryDy=0;" edge="1" parent="1" source="NwX0gk8FVgNozurQdXJV-5" target="NwX0gk8FVgNozurQdXJV-44">
          <mxGeometry width="50" height="50" relative="1" as="geometry">
            <mxPoint x="60" y="270" as="sourcePoint" />
            <mxPoint x="90" y="270" as="targetPoint" />
          </mxGeometry>
        </mxCell>
        <mxCell id="NwX0gk8FVgNozurQdXJV-48" value="" style="endArrow=none;html=1;rounded=0;exitX=1;exitY=0.5;exitDx=0;exitDy=0;entryX=0;entryY=0.5;entryDx=0;entryDy=0;" edge="1" parent="1" source="NwX0gk8FVgNozurQdXJV-4" target="NwX0gk8FVgNozurQdXJV-39">
          <mxGeometry width="50" height="50" relative="1" as="geometry">
            <mxPoint x="340" y="280" as="sourcePoint" />
            <mxPoint x="370" y="280" as="targetPoint" />
          </mxGeometry>
        </mxCell>
        <mxCell id="NwX0gk8FVgNozurQdXJV-49" value="" style="endArrow=none;html=1;rounded=0;entryX=1;entryY=0.5;entryDx=0;entryDy=0;exitX=0.5;exitY=0;exitDx=0;exitDy=0;" edge="1" parent="1" source="NwX0gk8FVgNozurQdXJV-30" target="NwX0gk8FVgNozurQdXJV-39">
          <mxGeometry width="50" height="50" relative="1" as="geometry">
            <mxPoint x="540" y="240" as="sourcePoint" />
            <mxPoint x="590" y="190" as="targetPoint" />
            <Array as="points">
              <mxPoint x="690" y="210" />
            </Array>
          </mxGeometry>
        </mxCell>
        <mxCell id="NwX0gk8FVgNozurQdXJV-51" value="&lt;u&gt;ID&lt;/u&gt;" style="ellipse;whiteSpace=wrap;html=1;" vertex="1" parent="1">
          <mxGeometry x="-130" y="280" width="130" height="40" as="geometry" />
        </mxCell>
        <mxCell id="NwX0gk8FVgNozurQdXJV-52" value="USER_ID(FK)" style="ellipse;whiteSpace=wrap;html=1;" vertex="1" parent="1">
          <mxGeometry x="180" y="320" width="140" height="40" as="geometry" />
        </mxCell>
        <mxCell id="NwX0gk8FVgNozurQdXJV-54" value="TIPO_EVENTO" style="ellipse;whiteSpace=wrap;html=1;" vertex="1" parent="1">
          <mxGeometry x="185" y="360" width="135" height="40" as="geometry" />
        </mxCell>
        <mxCell id="NwX0gk8FVgNozurQdXJV-55" value="FECHA_EVENTO" style="ellipse;whiteSpace=wrap;html=1;" vertex="1" parent="1">
          <mxGeometry x="180" y="400" width="140" height="40" as="geometry" />
        </mxCell>
        <mxCell id="NwX0gk8FVgNozurQdXJV-56" value="NUMERO_INVITADOS" style="ellipse;whiteSpace=wrap;html=1;" vertex="1" parent="1">
          <mxGeometry x="175" y="440" width="145" height="40" as="geometry" />
        </mxCell>
        <mxCell id="NwX0gk8FVgNozurQdXJV-57" value="LUGAR_ID(FK)" style="ellipse;whiteSpace=wrap;html=1;" vertex="1" parent="1">
          <mxGeometry x="175" y="480" width="145" height="40" as="geometry" />
        </mxCell>
        <mxCell id="NwX0gk8FVgNozurQdXJV-58" value="MENSAJE" style="ellipse;whiteSpace=wrap;html=1;" vertex="1" parent="1">
          <mxGeometry x="175" y="520" width="145" height="40" as="geometry" />
        </mxCell>
        <mxCell id="NwX0gk8FVgNozurQdXJV-59" value="FECHA_RESERVA" style="ellipse;whiteSpace=wrap;html=1;" vertex="1" parent="1">
          <mxGeometry x="180" y="560" width="140" height="40" as="geometry" />
        </mxCell>
        <mxCell id="NwX0gk8FVgNozurQdXJV-60" value="COMPLETADO" style="ellipse;whiteSpace=wrap;html=1;" vertex="1" parent="1">
          <mxGeometry x="180" y="600" width="140" height="40" as="geometry" />
        </mxCell>
        <mxCell id="NwX0gk8FVgNozurQdXJV-61" value="" style="endArrow=classic;html=1;rounded=0;entryX=0;entryY=1;entryDx=0;entryDy=0;exitX=0;exitY=0.5;exitDx=0;exitDy=0;" edge="1" parent="1" source="NwX0gk8FVgNozurQdXJV-38" target="NwX0gk8FVgNozurQdXJV-4">
          <mxGeometry width="50" height="50" relative="1" as="geometry">
            <mxPoint x="60" y="370" as="sourcePoint" />
            <mxPoint x="110" y="320" as="targetPoint" />
            <Array as="points">
              <mxPoint x="160" y="300" />
            </Array>
          </mxGeometry>
        </mxCell>
        <mxCell id="NwX0gk8FVgNozurQdXJV-62" value="" style="endArrow=none;html=1;rounded=0;entryX=0;entryY=1;entryDx=0;entryDy=0;exitX=0;exitY=0.5;exitDx=0;exitDy=0;startFill=0;" edge="1" parent="1" source="NwX0gk8FVgNozurQdXJV-52">
          <mxGeometry width="50" height="50" relative="1" as="geometry">
            <mxPoint x="180" y="360" as="sourcePoint" />
            <mxPoint x="160" y="300" as="targetPoint" />
            <Array as="points">
              <mxPoint x="160" y="340" />
            </Array>
          </mxGeometry>
        </mxCell>
        <mxCell id="NwX0gk8FVgNozurQdXJV-63" value="" style="endArrow=none;html=1;rounded=0;entryX=0;entryY=1;entryDx=0;entryDy=0;exitX=0;exitY=0.5;exitDx=0;exitDy=0;startFill=0;" edge="1" parent="1" source="NwX0gk8FVgNozurQdXJV-54">
          <mxGeometry width="50" height="50" relative="1" as="geometry">
            <mxPoint x="180" y="380" as="sourcePoint" />
            <mxPoint x="160" y="340" as="targetPoint" />
            <Array as="points">
              <mxPoint x="160" y="380" />
            </Array>
          </mxGeometry>
        </mxCell>
        <mxCell id="NwX0gk8FVgNozurQdXJV-64" value="" style="endArrow=none;html=1;rounded=0;entryX=0;entryY=1;entryDx=0;entryDy=0;exitX=0;exitY=0.5;exitDx=0;exitDy=0;startFill=0;" edge="1" parent="1">
          <mxGeometry width="50" height="50" relative="1" as="geometry">
            <mxPoint x="180" y="420" as="sourcePoint" />
            <mxPoint x="160" y="380" as="targetPoint" />
            <Array as="points">
              <mxPoint x="160" y="420" />
            </Array>
          </mxGeometry>
        </mxCell>
        <mxCell id="NwX0gk8FVgNozurQdXJV-65" value="" style="endArrow=none;html=1;rounded=0;entryX=0;entryY=1;entryDx=0;entryDy=0;startFill=0;exitX=0;exitY=0.5;exitDx=0;exitDy=0;" edge="1" parent="1" source="NwX0gk8FVgNozurQdXJV-56">
          <mxGeometry width="50" height="50" relative="1" as="geometry">
            <mxPoint x="170" y="460" as="sourcePoint" />
            <mxPoint x="160" y="420" as="targetPoint" />
            <Array as="points">
              <mxPoint x="160" y="460" />
            </Array>
          </mxGeometry>
        </mxCell>
        <mxCell id="NwX0gk8FVgNozurQdXJV-66" value="" style="endArrow=none;html=1;rounded=0;entryX=0;entryY=1;entryDx=0;entryDy=0;startFill=0;exitX=0;exitY=0.5;exitDx=0;exitDy=0;" edge="1" parent="1" source="NwX0gk8FVgNozurQdXJV-57">
          <mxGeometry width="50" height="50" relative="1" as="geometry">
            <mxPoint x="170" y="500" as="sourcePoint" />
            <mxPoint x="160" y="460" as="targetPoint" />
            <Array as="points">
              <mxPoint x="160" y="500" />
            </Array>
          </mxGeometry>
        </mxCell>
        <mxCell id="NwX0gk8FVgNozurQdXJV-67" value="" style="endArrow=none;html=1;rounded=0;entryX=0;entryY=1;entryDx=0;entryDy=0;startFill=0;exitX=0;exitY=0.5;exitDx=0;exitDy=0;" edge="1" parent="1" source="NwX0gk8FVgNozurQdXJV-58">
          <mxGeometry width="50" height="50" relative="1" as="geometry">
            <mxPoint x="170" y="540" as="sourcePoint" />
            <mxPoint x="160" y="500" as="targetPoint" />
            <Array as="points">
              <mxPoint x="160" y="540" />
            </Array>
          </mxGeometry>
        </mxCell>
        <mxCell id="NwX0gk8FVgNozurQdXJV-68" value="" style="endArrow=none;html=1;rounded=0;entryX=0;entryY=1;entryDx=0;entryDy=0;exitX=0;exitY=0.5;exitDx=0;exitDy=0;startFill=0;" edge="1" parent="1">
          <mxGeometry width="50" height="50" relative="1" as="geometry">
            <mxPoint x="180" y="580" as="sourcePoint" />
            <mxPoint x="160" y="540" as="targetPoint" />
            <Array as="points">
              <mxPoint x="160" y="580" />
            </Array>
          </mxGeometry>
        </mxCell>
        <mxCell id="NwX0gk8FVgNozurQdXJV-69" value="" style="endArrow=none;html=1;rounded=0;entryX=0;entryY=1;entryDx=0;entryDy=0;exitX=0;exitY=0.5;exitDx=0;exitDy=0;startFill=0;" edge="1" parent="1">
          <mxGeometry width="50" height="50" relative="1" as="geometry">
            <mxPoint x="180" y="620" as="sourcePoint" />
            <mxPoint x="160" y="580" as="targetPoint" />
            <Array as="points">
              <mxPoint x="160" y="620" />
            </Array>
          </mxGeometry>
        </mxCell>
        <mxCell id="NwX0gk8FVgNozurQdXJV-70" value="&lt;u&gt;ID&lt;/u&gt;" style="ellipse;whiteSpace=wrap;html=1;" vertex="1" parent="1">
          <mxGeometry x="800" y="380" width="130" height="40" as="geometry" />
        </mxCell>
        <mxCell id="NwX0gk8FVgNozurQdXJV-71" value="USER_ID(FK)" style="ellipse;whiteSpace=wrap;html=1;" vertex="1" parent="1">
          <mxGeometry x="800" y="420" width="130" height="40" as="geometry" />
        </mxCell>
        <mxCell id="NwX0gk8FVgNozurQdXJV-72" value="HABITACION_ID(FK)" style="ellipse;whiteSpace=wrap;html=1;" vertex="1" parent="1">
          <mxGeometry x="800" y="460" width="130" height="40" as="geometry" />
        </mxCell>
        <mxCell id="NwX0gk8FVgNozurQdXJV-73" value="FECHA_ENTRADA" style="ellipse;whiteSpace=wrap;html=1;" vertex="1" parent="1">
          <mxGeometry x="800" y="500" width="130" height="40" as="geometry" />
        </mxCell>
        <mxCell id="NwX0gk8FVgNozurQdXJV-74" value="FECHA_SALIDA" style="ellipse;whiteSpace=wrap;html=1;" vertex="1" parent="1">
          <mxGeometry x="800" y="540" width="130" height="40" as="geometry" />
        </mxCell>
        <mxCell id="NwX0gk8FVgNozurQdXJV-75" value="FECHA_RESERVA" style="ellipse;whiteSpace=wrap;html=1;" vertex="1" parent="1">
          <mxGeometry x="800" y="580" width="130" height="40" as="geometry" />
        </mxCell>
        <mxCell id="NwX0gk8FVgNozurQdXJV-76" value="COMPLETADO" style="ellipse;whiteSpace=wrap;html=1;" vertex="1" parent="1">
          <mxGeometry x="800" y="620" width="130" height="40" as="geometry" />
        </mxCell>
        <mxCell id="NwX0gk8FVgNozurQdXJV-77" value="&lt;u&gt;ID&lt;/u&gt;" style="ellipse;whiteSpace=wrap;html=1;" vertex="1" parent="1">
          <mxGeometry x="-120" y="620" width="120" height="40" as="geometry" />
        </mxCell>
        <mxCell id="NwX0gk8FVgNozurQdXJV-78" value="IMAGE_PATH" style="ellipse;whiteSpace=wrap;html=1;" vertex="1" parent="1">
          <mxGeometry x="-125" y="660" width="130" height="40" as="geometry" />
        </mxCell>
        <mxCell id="NwX0gk8FVgNozurQdXJV-79" value="DESCRIPTION" style="ellipse;whiteSpace=wrap;html=1;" vertex="1" parent="1">
          <mxGeometry x="-125" y="700" width="130" height="40" as="geometry" />
        </mxCell>
        <mxCell id="NwX0gk8FVgNozurQdXJV-80" value="IS_ACTIVE" style="ellipse;whiteSpace=wrap;html=1;" vertex="1" parent="1">
          <mxGeometry x="-120" y="740" width="130" height="40" as="geometry" />
        </mxCell>
        <mxCell id="NwX0gk8FVgNozurQdXJV-81" value="&lt;u&gt;ID&lt;/u&gt;" style="ellipse;whiteSpace=wrap;html=1;" vertex="1" parent="1">
          <mxGeometry x="1120" y="380" width="120" height="40" as="geometry" />
        </mxCell>
        <mxCell id="NwX0gk8FVgNozurQdXJV-82" value="TITULO" style="ellipse;whiteSpace=wrap;html=1;" vertex="1" parent="1">
          <mxGeometry x="1117.5" y="420" width="125" height="40" as="geometry" />
        </mxCell>
        <mxCell id="NwX0gk8FVgNozurQdXJV-83" value="DESCRIPCION" style="ellipse;whiteSpace=wrap;html=1;" vertex="1" parent="1">
          <mxGeometry x="1120" y="460" width="125" height="40" as="geometry" />
        </mxCell>
        <mxCell id="NwX0gk8FVgNozurQdXJV-84" value="IMAGEN" style="ellipse;whiteSpace=wrap;html=1;" vertex="1" parent="1">
          <mxGeometry x="1120" y="500" width="125" height="40" as="geometry" />
        </mxCell>
        <mxCell id="NwX0gk8FVgNozurQdXJV-85" value="PRECIO" style="ellipse;whiteSpace=wrap;html=1;" vertex="1" parent="1">
          <mxGeometry x="1120" y="540" width="125" height="40" as="geometry" />
        </mxCell>
        <mxCell id="NwX0gk8FVgNozurQdXJV-86" value="DISPONIBLE" style="ellipse;whiteSpace=wrap;html=1;" vertex="1" parent="1">
          <mxGeometry x="1120" y="580" width="125" height="40" as="geometry" />
        </mxCell>
        <mxCell id="NwX0gk8FVgNozurQdXJV-87" value="TITULO" style="ellipse;whiteSpace=wrap;html=1;" vertex="1" parent="1">
          <mxGeometry x="-130" y="320" width="130" height="40" as="geometry" />
        </mxCell>
        <mxCell id="NwX0gk8FVgNozurQdXJV-88" value="DESCRIPCION" style="ellipse;whiteSpace=wrap;html=1;" vertex="1" parent="1">
          <mxGeometry x="-127.5" y="360" width="127.5" height="40" as="geometry" />
        </mxCell>
        <mxCell id="NwX0gk8FVgNozurQdXJV-89" value="IMAGEN" style="ellipse;whiteSpace=wrap;html=1;" vertex="1" parent="1">
          <mxGeometry x="-130" y="400" width="130" height="40" as="geometry" />
        </mxCell>
        <mxCell id="NwX0gk8FVgNozurQdXJV-90" value="N:1" style="rhombus;whiteSpace=wrap;html=1;" vertex="1" parent="1">
          <mxGeometry x="390" y="800" width="100" height="50" as="geometry" />
        </mxCell>
        <mxCell id="NwX0gk8FVgNozurQdXJV-91" value="" style="endArrow=none;html=1;rounded=0;exitX=1;exitY=0.5;exitDx=0;exitDy=0;entryX=0.5;entryY=1;entryDx=0;entryDy=0;" edge="1" parent="1" source="NwX0gk8FVgNozurQdXJV-90" target="NwX0gk8FVgNozurQdXJV-30">
          <mxGeometry width="50" height="50" relative="1" as="geometry">
            <mxPoint x="570" y="850" as="sourcePoint" />
            <mxPoint x="620" y="800" as="targetPoint" />
            <Array as="points">
              <mxPoint x="690" y="825" />
            </Array>
          </mxGeometry>
        </mxCell>
        <mxCell id="NwX0gk8FVgNozurQdXJV-92" value="" style="endArrow=classic;html=1;rounded=0;entryX=0;entryY=1;entryDx=0;entryDy=0;exitX=0;exitY=0.5;exitDx=0;exitDy=0;" edge="1" parent="1" source="NwX0gk8FVgNozurQdXJV-51" target="NwX0gk8FVgNozurQdXJV-5">
          <mxGeometry width="50" height="50" relative="1" as="geometry">
            <mxPoint x="-210" y="340" as="sourcePoint" />
            <mxPoint x="-160" y="290" as="targetPoint" />
            <Array as="points">
              <mxPoint x="-150" y="300" />
            </Array>
          </mxGeometry>
        </mxCell>
        <mxCell id="NwX0gk8FVgNozurQdXJV-93" value="" style="endArrow=none;html=1;rounded=0;entryX=-0.012;entryY=0.49;entryDx=0;entryDy=0;entryPerimeter=0;" edge="1" parent="1" target="NwX0gk8FVgNozurQdXJV-87">
          <mxGeometry width="50" height="50" relative="1" as="geometry">
            <mxPoint x="-150" y="300" as="sourcePoint" />
            <mxPoint x="-150" y="340" as="targetPoint" />
            <Array as="points">
              <mxPoint x="-150" y="340" />
            </Array>
          </mxGeometry>
        </mxCell>
        <mxCell id="NwX0gk8FVgNozurQdXJV-94" value="" style="endArrow=none;html=1;rounded=0;entryX=0;entryY=0.5;entryDx=0;entryDy=0;" edge="1" parent="1" target="NwX0gk8FVgNozurQdXJV-88">
          <mxGeometry width="50" height="50" relative="1" as="geometry">
            <mxPoint x="-150" y="300" as="sourcePoint" />
            <mxPoint x="-150" y="400" as="targetPoint" />
            <Array as="points">
              <mxPoint x="-150" y="380" />
            </Array>
          </mxGeometry>
        </mxCell>
        <mxCell id="NwX0gk8FVgNozurQdXJV-95" value="" style="endArrow=none;html=1;rounded=0;entryX=0;entryY=0.5;entryDx=0;entryDy=0;" edge="1" parent="1" target="NwX0gk8FVgNozurQdXJV-89">
          <mxGeometry width="50" height="50" relative="1" as="geometry">
            <mxPoint x="-150" y="300" as="sourcePoint" />
            <mxPoint x="-150" y="420" as="targetPoint" />
            <Array as="points">
              <mxPoint x="-150" y="420" />
            </Array>
          </mxGeometry>
        </mxCell>
        <mxCell id="NwX0gk8FVgNozurQdXJV-96" value="&lt;u&gt;ID&lt;/u&gt;" style="ellipse;whiteSpace=wrap;html=1;" vertex="1" parent="1">
          <mxGeometry x="230" y="865" width="130" height="40" as="geometry" />
        </mxCell>
        <mxCell id="NwX0gk8FVgNozurQdXJV-97" value="USER_ID(FK)" style="ellipse;whiteSpace=wrap;html=1;" vertex="1" parent="1">
          <mxGeometry x="230" y="905" width="130" height="40" as="geometry" />
        </mxCell>
        <mxCell id="NwX0gk8FVgNozurQdXJV-98" value="FECHA_CREACION" style="ellipse;whiteSpace=wrap;html=1;" vertex="1" parent="1">
          <mxGeometry x="230" y="945" width="130" height="40" as="geometry" />
        </mxCell>
        <mxCell id="NwX0gk8FVgNozurQdXJV-99" value="MESSAGE" style="ellipse;whiteSpace=wrap;html=1;" vertex="1" parent="1">
          <mxGeometry x="230" y="985" width="130" height="40" as="geometry" />
        </mxCell>
        <mxCell id="NwX0gk8FVgNozurQdXJV-100" value="RESPONDIDA" style="ellipse;whiteSpace=wrap;html=1;" vertex="1" parent="1">
          <mxGeometry x="230" y="1025" width="130" height="40" as="geometry" />
        </mxCell>
        <mxCell id="NwX0gk8FVgNozurQdXJV-101" value="ADMIN_RESPONSE" style="ellipse;whiteSpace=wrap;html=1;" vertex="1" parent="1">
          <mxGeometry x="230" y="1065" width="130" height="40" as="geometry" />
        </mxCell>
        <mxCell id="NwX0gk8FVgNozurQdXJV-102" value="TIPO_RESERVA" style="ellipse;whiteSpace=wrap;html=1;" vertex="1" parent="1">
          <mxGeometry x="230" y="1105" width="130" height="40" as="geometry" />
        </mxCell>
        <mxCell id="NwX0gk8FVgNozurQdXJV-103" value="FECHA_RESERVA" style="ellipse;whiteSpace=wrap;html=1;" vertex="1" parent="1">
          <mxGeometry x="230" y="1145" width="130" height="40" as="geometry" />
        </mxCell>
        <mxCell id="NwX0gk8FVgNozurQdXJV-104" value="" style="endArrow=classic;html=1;rounded=0;entryX=0;entryY=1;entryDx=0;entryDy=0;exitX=0;exitY=0.5;exitDx=0;exitDy=0;" edge="1" parent="1" source="NwX0gk8FVgNozurQdXJV-96" target="NwX0gk8FVgNozurQdXJV-7">
          <mxGeometry width="50" height="50" relative="1" as="geometry">
            <mxPoint x="110" y="955" as="sourcePoint" />
            <mxPoint x="160" y="905" as="targetPoint" />
            <Array as="points">
              <mxPoint x="210" y="885" />
            </Array>
          </mxGeometry>
        </mxCell>
        <mxCell id="NwX0gk8FVgNozurQdXJV-105" value="" style="endArrow=none;html=1;rounded=0;entryX=0;entryY=0.5;entryDx=0;entryDy=0;" edge="1" parent="1" target="NwX0gk8FVgNozurQdXJV-97">
          <mxGeometry width="50" height="50" relative="1" as="geometry">
            <mxPoint x="210" y="885" as="sourcePoint" />
            <mxPoint x="230" y="905" as="targetPoint" />
            <Array as="points">
              <mxPoint x="210" y="925" />
            </Array>
          </mxGeometry>
        </mxCell>
        <mxCell id="NwX0gk8FVgNozurQdXJV-106" value="" style="endArrow=none;html=1;rounded=0;entryX=0;entryY=0.5;entryDx=0;entryDy=0;" edge="1" parent="1" target="NwX0gk8FVgNozurQdXJV-98">
          <mxGeometry width="50" height="50" relative="1" as="geometry">
            <mxPoint x="210" y="885" as="sourcePoint" />
            <mxPoint x="170" y="965" as="targetPoint" />
            <Array as="points">
              <mxPoint x="210" y="965" />
            </Array>
          </mxGeometry>
        </mxCell>
        <mxCell id="NwX0gk8FVgNozurQdXJV-107" value="" style="endArrow=none;html=1;rounded=0;entryX=0;entryY=0.5;entryDx=0;entryDy=0;" edge="1" parent="1" target="NwX0gk8FVgNozurQdXJV-99">
          <mxGeometry width="50" height="50" relative="1" as="geometry">
            <mxPoint x="210" y="885" as="sourcePoint" />
            <mxPoint x="180" y="1025" as="targetPoint" />
            <Array as="points">
              <mxPoint x="210" y="1005" />
            </Array>
          </mxGeometry>
        </mxCell>
        <mxCell id="NwX0gk8FVgNozurQdXJV-108" value="" style="endArrow=none;html=1;rounded=0;entryX=0;entryY=0.5;entryDx=0;entryDy=0;" edge="1" parent="1" target="NwX0gk8FVgNozurQdXJV-100">
          <mxGeometry width="50" height="50" relative="1" as="geometry">
            <mxPoint x="210" y="885" as="sourcePoint" />
            <mxPoint x="180" y="1075" as="targetPoint" />
            <Array as="points">
              <mxPoint x="210" y="1045" />
            </Array>
          </mxGeometry>
        </mxCell>
        <mxCell id="NwX0gk8FVgNozurQdXJV-109" value="" style="endArrow=none;html=1;rounded=0;entryX=0;entryY=0.5;entryDx=0;entryDy=0;" edge="1" parent="1" target="NwX0gk8FVgNozurQdXJV-103">
          <mxGeometry width="50" height="50" relative="1" as="geometry">
            <mxPoint x="210" y="885" as="sourcePoint" />
            <mxPoint x="210" y="1095" as="targetPoint" />
            <Array as="points">
              <mxPoint x="210" y="1165" />
            </Array>
          </mxGeometry>
        </mxCell>
        <mxCell id="NwX0gk8FVgNozurQdXJV-110" value="" style="endArrow=none;html=1;rounded=0;entryX=0;entryY=0.5;entryDx=0;entryDy=0;" edge="1" parent="1" target="NwX0gk8FVgNozurQdXJV-102">
          <mxGeometry width="50" height="50" relative="1" as="geometry">
            <mxPoint x="210" y="885" as="sourcePoint" />
            <mxPoint x="210" y="1115" as="targetPoint" />
            <Array as="points">
              <mxPoint x="210" y="1125" />
            </Array>
          </mxGeometry>
        </mxCell>
        <mxCell id="NwX0gk8FVgNozurQdXJV-111" value="" style="endArrow=none;html=1;rounded=0;entryX=0;entryY=0.5;entryDx=0;entryDy=0;" edge="1" parent="1" target="NwX0gk8FVgNozurQdXJV-101">
          <mxGeometry width="50" height="50" relative="1" as="geometry">
            <mxPoint x="210" y="885" as="sourcePoint" />
            <mxPoint x="220" y="1065" as="targetPoint" />
            <Array as="points">
              <mxPoint x="210" y="1085" />
            </Array>
          </mxGeometry>
        </mxCell>
        <mxCell id="NwX0gk8FVgNozurQdXJV-112" value="" style="endArrow=none;html=1;rounded=0;entryX=0;entryY=0.5;entryDx=0;entryDy=0;exitX=1;exitY=0.5;exitDx=0;exitDy=0;" edge="1" parent="1" source="NwX0gk8FVgNozurQdXJV-7" target="NwX0gk8FVgNozurQdXJV-90">
          <mxGeometry width="50" height="50" relative="1" as="geometry">
            <mxPoint x="380" y="950" as="sourcePoint" />
            <mxPoint x="430" y="900" as="targetPoint" />
          </mxGeometry>
        </mxCell>
        <mxCell id="NwX0gk8FVgNozurQdXJV-113" value="TANDA" style="ellipse;whiteSpace=wrap;html=1;" vertex="1" parent="1">
          <mxGeometry x="180" y="640" width="140" height="40" as="geometry" />
        </mxCell>
        <mxCell id="NwX0gk8FVgNozurQdXJV-114" value="" style="endArrow=none;html=1;rounded=0;entryX=0;entryY=0.5;entryDx=0;entryDy=0;" edge="1" parent="1" target="NwX0gk8FVgNozurQdXJV-113">
          <mxGeometry width="50" height="50" relative="1" as="geometry">
            <mxPoint x="160" y="620" as="sourcePoint" />
            <mxPoint x="150" y="670" as="targetPoint" />
            <Array as="points">
              <mxPoint x="160" y="660" />
            </Array>
          </mxGeometry>
        </mxCell>
      </root>
    </mxGraphModel>
  </diagram>
</mxfile>
